<svg width="48" height="48" viewBox="0 0 48 48" xmlns="http://www.w3.org/2000/svg" role="img" aria-labelledby="workflowFlaskTitle">
  <title id="workflowFlaskTitle">Flask Backend</title>
  <defs>
    <linearGradient id="workflowFlaskBg" x1="8" y1="8" x2="40" y2="40" gradientUnits="userSpaceOnUse">
      <stop offset="0" stop-color="#0d182d" />
      <stop offset="1" stop-color="#172b4a" />
    </linearGradient>
  </defs>
  <rect x="4" y="4" width="40" height="40" rx="12" fill="url(#workflowFlaskBg)" />
  <path
    d="M18 10h12m-2 0v8.2c0 .9.3 1.7.9 2.4l4.8 5.6c1.4 1.7 1.1 4.1-.7 5.4a11 11 0 0 1-13.8 0c-1.8-1.3-2.1-3.7-.7-5.4l4.8-5.6c.6-.7.9-1.5.9-2.4V10"
    fill="none"
    stroke="#d0e7ff"
    stroke-width="2.2"
    stroke-linecap="round"
    stroke-linejoin="round"
  />
  <path d="M19 24.5c2.4 2.4 7.6 2.5 10 0" fill="none" stroke="#9bd0ff" stroke-width="2" stroke-linecap="round" />
  <circle cx="32.5" cy="13.5" r="2.5" fill="#ffaf87" />
</svg>
